<svg width="216" height="46" xmlns="http://www.w3.org/2000/svg" xmlns:xlink="http://www.w3.org/1999/xlink" fill="none" viewBox="0 0 216 46"  version="1.0"><defs><g/></defs><g  ><g transform="translate(2.857502, 22.42974)"><g><path d="M 1.625 0 L 1.625 -2.40625 L 4.890625 -2.40625 L 4.890625 -12.734375 L 1.625 -12.734375 L 1.625 -15.15625 L 11.390625 -15.15625 L 11.390625 -12.734375 L 8.140625 -12.734375 L 8.140625 -2.40625 L 11.390625 -2.40625 L 11.390625 0 Z M 1.625 0 " fill="#31A1A8"/></g></g></g><g  ><g transform="translate(15.880414, 22.42974)"><g><path d="M 1.40625 0 L 1.40625 -11.203125 L 4.625 -11.203125 L 4.625 -9.15625 L 4.75 -9.15625 C 4.882812 -9.476562 5.046875 -9.773438 5.234375 -10.046875 C 5.421875 -10.328125 5.644531 -10.570312 5.90625 -10.78125 C 6.175781 -10.988281 6.488281 -11.148438 6.84375 -11.265625 C 7.195312 -11.390625 7.597656 -11.453125 8.046875 -11.453125 C 8.585938 -11.453125 9.082031 -11.363281 9.53125 -11.1875 C 9.976562 -11.007812 10.359375 -10.738281 10.671875 -10.375 C 10.992188 -10.007812 11.242188 -9.566406 11.421875 -9.046875 C 11.609375 -8.523438 11.703125 -7.925781 11.703125 -7.25 L 11.703125 0 L 8.484375 0 L 8.484375 -6.8125 C 8.484375 -8.257812 7.851562 -8.984375 6.59375 -8.984375 C 6.351562 -8.984375 6.113281 -8.953125 5.875 -8.890625 C 5.632812 -8.828125 5.421875 -8.722656 5.234375 -8.578125 C 5.046875 -8.441406 4.894531 -8.269531 4.78125 -8.0625 C 4.675781 -7.863281 4.625 -7.628906 4.625 -7.359375 L 4.625 0 Z M 1.40625 0 " fill="#31A1A8"/></g></g></g><g  ><g transform="translate(28.903327, 22.42974)"><g><path d="M 12.65625 1.125 C 12.65625 2.3125 12.15625 3.1875 11.15625 3.75 C 10.15625 4.3125 8.585938 4.59375 6.453125 4.59375 C 5.378906 4.59375 4.492188 4.53125 3.796875 4.40625 C 3.097656 4.289062 2.539062 4.113281 2.125 3.875 C 1.71875 3.644531 1.429688 3.367188 1.265625 3.046875 C 1.097656 2.734375 1.015625 2.390625 1.015625 2.015625 C 1.015625 1.378906 1.203125 0.898438 1.578125 0.578125 C 1.960938 0.253906 2.492188 0.00390625 3.171875 -0.171875 L 3.171875 -0.296875 C 2.691406 -0.441406 2.3125 -0.648438 2.03125 -0.921875 C 1.75 -1.191406 1.609375 -1.570312 1.609375 -2.0625 C 1.609375 -2.613281 1.789062 -3.019531 2.15625 -3.28125 C 2.53125 -3.539062 3.019531 -3.742188 3.625 -3.890625 L 3.625 -4.015625 C 2.957031 -4.335938 2.4375 -4.785156 2.0625 -5.359375 C 1.695312 -5.941406 1.515625 -6.644531 1.515625 -7.46875 C 1.515625 -8.113281 1.628906 -8.6875 1.859375 -9.1875 C 2.097656 -9.6875 2.429688 -10.101562 2.859375 -10.4375 C 3.285156 -10.769531 3.796875 -11.019531 4.390625 -11.1875 C 4.984375 -11.363281 5.644531 -11.453125 6.375 -11.453125 C 7.082031 -11.453125 7.742188 -11.375 8.359375 -11.21875 L 8.359375 -11.828125 C 8.359375 -12.265625 8.507812 -12.625 8.8125 -12.90625 C 9.113281 -13.195312 9.53125 -13.34375 10.0625 -13.34375 L 12.046875 -13.34375 L 12.046875 -11 L 9.359375 -11 L 9.359375 -10.8125 C 9.960938 -10.488281 10.429688 -10.046875 10.765625 -9.484375 C 11.109375 -8.929688 11.28125 -8.257812 11.28125 -7.46875 C 11.28125 -6.8125 11.164062 -6.238281 10.9375 -5.75 C 10.707031 -5.257812 10.375 -4.84375 9.9375 -4.5 C 9.5 -4.164062 8.976562 -3.910156 8.375 -3.734375 C 7.78125 -3.554688 7.113281 -3.46875 6.375 -3.46875 C 6.039062 -3.46875 5.722656 -3.484375 5.421875 -3.515625 C 5.117188 -3.554688 4.832031 -3.613281 4.5625 -3.6875 C 4.394531 -3.601562 4.257812 -3.492188 4.15625 -3.359375 C 4.050781 -3.234375 4 -3.066406 4 -2.859375 C 4 -2.691406 4.039062 -2.554688 4.125 -2.453125 C 4.207031 -2.347656 4.320312 -2.269531 4.46875 -2.21875 C 4.625 -2.175781 4.800781 -2.144531 5 -2.125 C 5.207031 -2.113281 5.421875 -2.109375 5.640625 -2.109375 L 8.203125 -2.109375 C 8.992188 -2.109375 9.671875 -2.023438 10.234375 -1.859375 C 10.804688 -1.703125 11.269531 -1.476562 11.625 -1.1875 C 11.988281 -0.90625 12.25 -0.566406 12.40625 -0.171875 C 12.570312 0.210938 12.65625 0.644531 12.65625 1.125 Z M 9.609375 1.375 C 9.609375 1.082031 9.492188 0.851562 9.265625 0.6875 C 9.035156 0.519531 8.59375 0.4375 7.9375 0.4375 L 4.109375 0.4375 C 3.816406 0.675781 3.671875 0.976562 3.671875 1.34375 C 3.671875 1.6875 3.816406 1.972656 4.109375 2.203125 C 4.410156 2.429688 4.914062 2.546875 5.625 2.546875 L 7.515625 2.546875 C 8.242188 2.546875 8.773438 2.441406 9.109375 2.234375 C 9.441406 2.035156 9.609375 1.75 9.609375 1.375 Z M 6.375 -5.515625 C 7.03125 -5.515625 7.503906 -5.671875 7.796875 -5.984375 C 8.097656 -6.304688 8.25 -6.710938 8.25 -7.203125 L 8.25 -7.71875 C 8.25 -8.21875 8.097656 -8.625 7.796875 -8.9375 C 7.503906 -9.257812 7.03125 -9.421875 6.375 -9.421875 C 5.738281 -9.421875 5.273438 -9.257812 4.984375 -8.9375 C 4.703125 -8.625 4.5625 -8.21875 4.5625 -7.71875 L 4.5625 -7.203125 C 4.5625 -6.710938 4.703125 -6.304688 4.984375 -5.984375 C 5.273438 -5.671875 5.738281 -5.515625 6.375 -5.515625 Z M 6.375 -5.515625 " fill="#31A1A8"/></g></g></g><g  ><g transform="translate(41.926239, 22.42974)"><g><path d="M 6.8125 0.265625 C 4.9375 0.265625 3.507812 -0.253906 2.53125 -1.296875 C 1.5625 -2.335938 1.078125 -3.757812 1.078125 -5.5625 C 1.078125 -6.46875 1.203125 -7.285156 1.453125 -8.015625 C 1.710938 -8.742188 2.078125 -9.363281 2.546875 -9.875 C 3.015625 -10.394531 3.585938 -10.785156 4.265625 -11.046875 C 4.941406 -11.316406 5.695312 -11.453125 6.53125 -11.453125 C 7.375 -11.453125 8.125 -11.316406 8.78125 -11.046875 C 9.445312 -10.785156 10.007812 -10.410156 10.46875 -9.921875 C 10.9375 -9.429688 11.296875 -8.832031 11.546875 -8.125 C 11.804688 -7.425781 11.9375 -6.640625 11.9375 -5.765625 L 11.9375 -4.8125 L 4.28125 -4.8125 L 4.28125 -4.625 C 4.28125 -3.894531 4.503906 -3.3125 4.953125 -2.875 C 5.398438 -2.4375 6.054688 -2.21875 6.921875 -2.21875 C 7.585938 -2.21875 8.160156 -2.34375 8.640625 -2.59375 C 9.117188 -2.84375 9.53125 -3.179688 9.875 -3.609375 L 11.609375 -1.71875 C 11.171875 -1.175781 10.5625 -0.707031 9.78125 -0.3125 C 9 0.0703125 8.007812 0.265625 6.8125 0.265625 Z M 6.546875 -9.15625 C 5.859375 -9.15625 5.304688 -8.941406 4.890625 -8.515625 C 4.484375 -8.085938 4.28125 -7.515625 4.28125 -6.796875 L 4.28125 -6.625 L 8.796875 -6.625 L 8.796875 -6.796875 C 8.796875 -7.535156 8.59375 -8.113281 8.1875 -8.53125 C 7.789062 -8.945312 7.242188 -9.15625 6.546875 -9.15625 Z M 6.546875 -9.15625 " fill="#31A1A8"/></g></g></g><g  ><g transform="translate(54.949151, 22.42974)"><g><path d="M 8.921875 -2.15625 L 8.71875 -2.15625 C 8.59375 -1.832031 8.4375 -1.523438 8.25 -1.234375 C 8.0625 -0.941406 7.828125 -0.679688 7.546875 -0.453125 C 7.273438 -0.234375 6.953125 -0.0625 6.578125 0.0625 C 6.210938 0.195312 5.800781 0.265625 5.34375 0.265625 C 4.601562 0.265625 3.945312 0.09375 3.375 -0.25 C 2.800781 -0.601562 2.316406 -1.113281 1.921875 -1.78125 C 1.535156 -2.445312 1.242188 -3.253906 1.046875 -4.203125 C 0.859375 -5.160156 0.765625 -6.238281 0.765625 -7.4375 C 0.765625 -10.019531 1.234375 -11.992188 2.171875 -13.359375 C 3.109375 -14.722656 4.5625 -15.40625 6.53125 -15.40625 C 7.3125 -15.40625 8 -15.300781 8.59375 -15.09375 C 9.1875 -14.882812 9.695312 -14.585938 10.125 -14.203125 C 10.550781 -13.816406 10.898438 -13.359375 11.171875 -12.828125 C 11.453125 -12.296875 11.671875 -11.703125 11.828125 -11.046875 L 8.796875 -10.3125 C 8.703125 -10.625 8.597656 -10.925781 8.484375 -11.21875 C 8.378906 -11.519531 8.238281 -11.785156 8.0625 -12.015625 C 7.894531 -12.253906 7.679688 -12.441406 7.421875 -12.578125 C 7.160156 -12.710938 6.84375 -12.78125 6.46875 -12.78125 C 5.644531 -12.78125 5.0625 -12.441406 4.71875 -11.765625 C 4.375 -11.085938 4.203125 -10.128906 4.203125 -8.890625 L 4.203125 -6.421875 C 4.203125 -5.191406 4.382812 -4.207031 4.75 -3.46875 C 5.125 -2.726562 5.785156 -2.359375 6.734375 -2.359375 C 7.460938 -2.359375 8.007812 -2.578125 8.375 -3.015625 C 8.738281 -3.453125 8.921875 -4.007812 8.921875 -4.6875 L 8.921875 -5.796875 L 6.34375 -5.796875 L 6.34375 -8.09375 L 11.828125 -8.09375 L 11.828125 0 L 8.921875 0 Z M 8.921875 -2.15625 " fill="#31A1A8"/></g></g></g><g  ><g transform="translate(67.972063, 22.42974)"><g><path d="M 10.5625 0 C 9.90625 0 9.375 -0.164062 8.96875 -0.5 C 8.5625 -0.84375 8.320312 -1.332031 8.25 -1.96875 L 8.140625 -1.96875 C 7.929688 -1.238281 7.523438 -0.679688 6.921875 -0.296875 C 6.328125 0.078125 5.597656 0.265625 4.734375 0.265625 C 3.648438 0.265625 2.773438 -0.0234375 2.109375 -0.609375 C 1.453125 -1.203125 1.125 -2.023438 1.125 -3.078125 C 1.125 -4.253906 1.550781 -5.125 2.40625 -5.6875 C 3.257812 -6.25 4.507812 -6.53125 6.15625 -6.53125 L 7.96875 -6.53125 L 7.96875 -7.09375 C 7.96875 -7.757812 7.8125 -8.257812 7.5 -8.59375 C 7.1875 -8.9375 6.660156 -9.109375 5.921875 -9.109375 C 5.242188 -9.109375 4.691406 -8.976562 4.265625 -8.71875 C 3.847656 -8.457031 3.488281 -8.117188 3.1875 -7.703125 L 1.4375 -9.265625 C 1.8125 -9.898438 2.398438 -10.421875 3.203125 -10.828125 C 4.003906 -11.242188 5.035156 -11.453125 6.296875 -11.453125 C 7.828125 -11.453125 9.019531 -11.101562 9.875 -10.40625 C 10.738281 -9.707031 11.171875 -8.648438 11.171875 -7.234375 L 11.171875 -2.328125 L 12.421875 -2.328125 L 12.421875 0 Z M 5.953125 -1.84375 C 6.515625 -1.84375 6.988281 -1.976562 7.375 -2.25 C 7.769531 -2.53125 7.96875 -2.929688 7.96875 -3.453125 L 7.96875 -4.796875 L 6.25 -4.796875 C 4.9375 -4.796875 4.28125 -4.351562 4.28125 -3.46875 L 4.28125 -3.03125 C 4.28125 -2.644531 4.429688 -2.347656 4.734375 -2.140625 C 5.035156 -1.941406 5.441406 -1.84375 5.953125 -1.84375 Z M 5.953125 -1.84375 " fill="#31A1A8"/></g></g></g><g  ><g transform="translate(80.994976, 22.42974)"><g><path d="M 7.375 0 C 6.21875 0 5.359375 -0.300781 4.796875 -0.90625 C 4.234375 -1.519531 3.953125 -2.296875 3.953125 -3.234375 L 3.953125 -8.703125 L 0.90625 -8.703125 L 0.90625 -11.203125 L 2.890625 -11.203125 C 3.367188 -11.203125 3.707031 -11.296875 3.90625 -11.484375 C 4.101562 -11.671875 4.203125 -12.015625 4.203125 -12.515625 L 4.203125 -15.15625 L 7.15625 -15.15625 L 7.15625 -11.203125 L 11.53125 -11.203125 L 11.53125 -8.703125 L 7.15625 -8.703125 L 7.15625 -2.5 L 11.53125 -2.5 L 11.53125 0 Z M 7.375 0 " fill="#31A1A8"/></g></g></g><g  ><g transform="translate(94.017888, 22.42974)"><g><path d="M 6.515625 0.265625 C 5.640625 0.265625 4.851562 0.128906 4.15625 -0.140625 C 3.46875 -0.410156 2.878906 -0.796875 2.390625 -1.296875 C 1.910156 -1.804688 1.539062 -2.421875 1.28125 -3.140625 C 1.019531 -3.867188 0.890625 -4.6875 0.890625 -5.59375 C 0.890625 -6.507812 1.019531 -7.328125 1.28125 -8.046875 C 1.539062 -8.773438 1.910156 -9.390625 2.390625 -9.890625 C 2.878906 -10.398438 3.46875 -10.785156 4.15625 -11.046875 C 4.851562 -11.316406 5.640625 -11.453125 6.515625 -11.453125 C 7.378906 -11.453125 8.15625 -11.316406 8.84375 -11.046875 C 9.539062 -10.785156 10.128906 -10.398438 10.609375 -9.890625 C 11.097656 -9.390625 11.472656 -8.773438 11.734375 -8.046875 C 11.992188 -7.328125 12.125 -6.507812 12.125 -5.59375 C 12.125 -4.6875 11.992188 -3.867188 11.734375 -3.140625 C 11.472656 -2.421875 11.097656 -1.804688 10.609375 -1.296875 C 10.128906 -0.796875 9.539062 -0.410156 8.84375 -0.140625 C 8.15625 0.128906 7.378906 0.265625 6.515625 0.265625 Z M 6.515625 -2.125 C 7.234375 -2.125 7.796875 -2.347656 8.203125 -2.796875 C 8.609375 -3.242188 8.8125 -3.878906 8.8125 -4.703125 L 8.8125 -6.484375 C 8.8125 -7.304688 8.609375 -7.941406 8.203125 -8.390625 C 7.796875 -8.847656 7.234375 -9.078125 6.515625 -9.078125 C 5.785156 -9.078125 5.21875 -8.847656 4.8125 -8.390625 C 4.40625 -7.941406 4.203125 -7.304688 4.203125 -6.484375 L 4.203125 -4.703125 C 4.203125 -3.878906 4.40625 -3.242188 4.8125 -2.796875 C 5.21875 -2.347656 5.785156 -2.125 6.515625 -2.125 Z M 6.515625 -2.125 " fill="#31A1A8"/></g></g></g><g  ><g transform="translate(107.0408, 22.42974)"><g><path d="M 4.59375 0 L 0.59375 -11.203125 L 3.96875 -11.203125 L 5.421875 -6.40625 L 6.484375 -2.671875 L 6.65625 -2.671875 L 7.71875 -6.40625 L 9.1875 -11.203125 L 12.4375 -11.203125 L 8.421875 0 Z M 4.59375 0 " fill="#31A1A8"/></g></g></g><g  ><g transform="translate(120.063712, 22.42974)"><g><path d="M 6.375 0.265625 C 5.132812 0.265625 4.054688 0.078125 3.140625 -0.296875 C 2.222656 -0.679688 1.53125 -1.195312 1.0625 -1.84375 L 2.859375 -3.515625 C 3.296875 -3.035156 3.804688 -2.660156 4.390625 -2.390625 C 4.984375 -2.128906 5.65625 -2 6.40625 -2 C 7.039062 -2 7.535156 -2.09375 7.890625 -2.28125 C 8.253906 -2.476562 8.4375 -2.78125 8.4375 -3.1875 C 8.4375 -3.507812 8.3125 -3.726562 8.0625 -3.84375 C 7.820312 -3.96875 7.484375 -4.066406 7.046875 -4.140625 L 5.25 -4.421875 C 4.75 -4.492188 4.28125 -4.601562 3.84375 -4.75 C 3.40625 -4.90625 3.023438 -5.113281 2.703125 -5.375 C 2.390625 -5.632812 2.140625 -5.953125 1.953125 -6.328125 C 1.765625 -6.710938 1.671875 -7.171875 1.671875 -7.703125 C 1.671875 -8.878906 2.117188 -9.796875 3.015625 -10.453125 C 3.910156 -11.117188 5.171875 -11.453125 6.796875 -11.453125 C 7.890625 -11.453125 8.820312 -11.300781 9.59375 -11 C 10.375 -10.707031 10.992188 -10.289062 11.453125 -9.75 L 9.859375 -7.921875 C 9.523438 -8.285156 9.097656 -8.585938 8.578125 -8.828125 C 8.054688 -9.078125 7.425781 -9.203125 6.6875 -9.203125 C 5.4375 -9.203125 4.8125 -8.828125 4.8125 -8.078125 C 4.8125 -7.742188 4.9375 -7.515625 5.1875 -7.390625 C 5.4375 -7.265625 5.773438 -7.164062 6.203125 -7.09375 L 7.984375 -6.8125 C 8.492188 -6.738281 8.960938 -6.625 9.390625 -6.46875 C 9.828125 -6.320312 10.207031 -6.117188 10.53125 -5.859375 C 10.863281 -5.597656 11.125 -5.28125 11.3125 -4.90625 C 11.5 -4.53125 11.59375 -4.070312 11.59375 -3.53125 C 11.59375 -2.363281 11.140625 -1.4375 10.234375 -0.75 C 9.328125 -0.0703125 8.039062 0.265625 6.375 0.265625 Z M 6.375 0.265625 " fill="#31A1A8"/></g></g></g><g  ><g transform="translate(133.086625, 22.42974)"><g><path d="M 1.40625 -16.0625 L 4.625 -16.0625 L 4.625 -6.9375 L 4.78125 -6.9375 L 6.265625 -8.703125 L 8.609375 -11.203125 L 12.3125 -11.203125 L 7.96875 -6.765625 L 12.765625 0 L 8.9375 0 L 5.6875 -4.953125 L 4.625 -3.890625 L 4.625 0 L 1.40625 0 Z M 1.40625 -16.0625 " fill="#31A1A8"/></g></g></g><g  ><g transform="translate(146.109537, 22.42974)"><g><path d="M 9.328125 -11.203125 L 12.609375 -11.203125 L 7.328125 1.796875 C 7.003906 2.617188 6.566406 3.25 6.015625 3.6875 C 5.460938 4.125 4.707031 4.34375 3.75 4.34375 L 1.546875 4.34375 L 1.546875 1.84375 L 4.234375 1.84375 L 4.921875 -0.0625 L 0.40625 -11.203125 L 3.859375 -11.203125 L 5.484375 -6.484375 L 6.515625 -3.234375 L 6.6875 -3.234375 L 7.65625 -6.484375 Z M 9.328125 -11.203125 " fill="#31A1A8"/></g></g></g>
</svg>